<svg width="237" height="252" viewBox="0 0 237 252" fill="none" xmlns="http://www.w3.org/2000/svg">
<g opacity="0.39967">
<mask id="mask0_0_7" style="mask-type:luminance" maskUnits="userSpaceOnUse" x="1" y="88" width="136" height="109">
<path fill-rule="evenodd" clip-rule="evenodd" d="M1.73462 184.539L11.717 196.778L136.169 95.7902L119.758 88.7773L1.73462 184.539Z" fill="white"/>
</mask>
<g mask="url(#mask0_0_7)">
<path fill-rule="evenodd" clip-rule="evenodd" d="M120.149 202.404C119.774 201.957 119.431 201.478 119.02 201.068C76.8359 158.994 34.6472 116.924 -7.53998 74.8517C-7.88149 74.5097 -8.19127 74.136 -8.51465 73.7773H-0.371271C-0.0358047 74.1872 0.267929 74.6287 0.641173 74.9994C36.5361 110.802 72.4401 146.596 108.335 182.397C115.004 189.05 121.64 195.734 128.292 202.404H120.149Z" fill="#231F20"/>
</g>
<mask id="mask1_0_7" style="mask-type:luminance" maskUnits="userSpaceOnUse" x="1" y="88" width="136" height="109">
<path fill-rule="evenodd" clip-rule="evenodd" d="M1.73462 184.539L11.717 196.778L136.169 95.7902L119.758 88.7773L1.73462 184.539Z" fill="white"/>
</mask>
<g mask="url(#mask1_0_7)">
<path fill-rule="evenodd" clip-rule="evenodd" d="M136.436 202.404C135.985 201.881 135.567 201.325 135.079 200.838C93.0092 158.878 50.9338 116.923 8.86148 74.9662C8.48068 74.5865 8.13464 74.1752 7.77197 73.7773H15.9153C16.3657 74.3017 16.7858 74.8578 17.2738 75.3445C59.3039 117.267 101.34 159.184 143.373 201.103C143.792 201.52 144.177 201.97 144.579 202.404H136.436Z" fill="#231F20"/>
</g>
<mask id="mask2_0_7" style="mask-type:luminance" maskUnits="userSpaceOnUse" x="1" y="88" width="136" height="109">
<path fill-rule="evenodd" clip-rule="evenodd" d="M1.73462 184.539L11.717 196.778L136.169 95.7902L119.758 88.7773L1.73462 184.539Z" fill="white"/>
</mask>
<g mask="url(#mask2_0_7)">
<path fill-rule="evenodd" clip-rule="evenodd" d="M152.722 202.404C152.309 201.918 151.929 201.401 151.48 200.952C109.333 158.916 67.181 116.885 25.0316 74.8517C24.6901 74.5112 24.3818 74.136 24.0585 73.7773H32.2018C32.5373 74.1872 32.841 74.6287 33.2143 75.0009C69.2241 110.918 105.241 146.828 141.25 182.745C147.805 189.282 154.328 195.85 160.865 202.404H152.722Z" fill="#231F20"/>
</g>
<mask id="mask3_0_7" style="mask-type:luminance" maskUnits="userSpaceOnUse" x="1" y="88" width="136" height="109">
<path fill-rule="evenodd" clip-rule="evenodd" d="M1.73462 184.539L11.717 196.778L136.169 95.7902L119.758 88.7773L1.73462 184.539Z" fill="white"/>
</mask>
<g mask="url(#mask3_0_7)">
<path fill-rule="evenodd" clip-rule="evenodd" d="M169.009 202.404C168.596 201.918 168.217 201.4 167.766 200.952C125.659 158.954 83.5446 116.961 41.4345 74.9662C41.0537 74.5865 40.7076 74.1752 40.345 73.7773C43.0589 73.7773 45.7744 73.7773 48.4883 73.7773C48.9387 74.3017 49.3572 74.8578 49.8453 75.3445C91.8754 117.267 133.911 159.184 175.945 201.103C176.363 201.52 176.75 201.97 177.152 202.404H169.009Z" fill="#231F20"/>
</g>
<mask id="mask4_0_7" style="mask-type:luminance" maskUnits="userSpaceOnUse" x="1" y="88" width="136" height="109">
<path fill-rule="evenodd" clip-rule="evenodd" d="M1.73462 184.539L11.717 196.778L136.169 95.7902L119.758 88.7773L1.73462 184.539Z" fill="white"/>
</mask>
<g mask="url(#mask4_0_7)">
<path fill-rule="evenodd" clip-rule="evenodd" d="M185.295 202.404C184.92 201.957 184.577 201.478 184.166 201.068C141.982 158.994 99.7933 116.924 57.6061 74.8517C57.2646 74.5097 56.9548 74.136 56.6315 73.7773H64.7748C65.1103 74.1872 65.414 74.6272 65.7873 74.9994C101.682 110.802 137.586 146.594 173.481 182.397C180.15 189.05 186.786 195.734 193.438 202.404H185.295Z" fill="#231F20"/>
</g>
<mask id="mask5_0_7" style="mask-type:luminance" maskUnits="userSpaceOnUse" x="1" y="88" width="136" height="109">
<path fill-rule="evenodd" clip-rule="evenodd" d="M1.73462 184.539L11.717 196.778L136.169 95.7902L119.758 88.7773L1.73462 184.539Z" fill="white"/>
</mask>
<g mask="url(#mask5_0_7)">
<path fill-rule="evenodd" clip-rule="evenodd" d="M201.582 202.404C201.131 201.881 200.713 201.325 200.225 200.838C158.155 158.878 116.08 116.923 74.0076 74.9662C73.6268 74.5865 73.2808 74.1752 72.9181 73.7773H81.0615C81.474 74.2641 81.8548 74.7809 82.3051 75.2299C123.676 116.494 165.051 157.751 206.431 199.004C206.842 199.414 207.322 199.756 207.771 200.13L207.771 202.404H201.582Z" fill="#231F20"/>
</g>
<mask id="mask6_0_7" style="mask-type:luminance" maskUnits="userSpaceOnUse" x="1" y="88" width="136" height="109">
<path fill-rule="evenodd" clip-rule="evenodd" d="M1.73462 184.539L11.717 196.778L136.169 95.7902L119.758 88.7773" fill="white"/>
</mask>
<g mask="url(#mask6_0_7)">
<path fill-rule="evenodd" clip-rule="evenodd" d="M-16.6579 73.7778C-16.2076 74.3007 -15.789 74.8567 -15.3009 75.3434C26.7292 117.266 68.7652 159.183 110.798 201.104C111.217 201.521 111.604 201.969 112.006 202.404L103.862 202.404C103.488 201.956 103.145 201.477 102.734 201.067C63.3177 161.752 23.8973 122.443 -15.5276 83.1384C-15.9779 82.6893 -16.4962 82.3096 -16.9843 81.8982C-16.9843 79.4014 -16.9918 76.9061 -16.9692 74.4092C-16.9676 74.1982 -16.7667 73.9888 -16.6579 73.7778Z" fill="#231F20"/>
</g>
<mask id="mask7_0_7" style="mask-type:luminance" maskUnits="userSpaceOnUse" x="1" y="88" width="136" height="109">
<path fill-rule="evenodd" clip-rule="evenodd" d="M1.73462 184.539L11.717 196.778L136.169 95.7902L119.758 88.7773L1.73462 184.539Z" fill="white"/>
</mask>
<g mask="url(#mask7_0_7)">
<path fill-rule="evenodd" clip-rule="evenodd" d="M207.771 192.009C201.385 185.679 194.984 179.362 188.616 173.014C155.72 140.223 122.834 107.424 89.9462 74.6242C89.6817 74.3605 89.4505 74.0606 89.2042 73.7773H97.3476C97.6846 74.1872 97.9883 74.6287 98.3616 75.0009C134.341 110.89 170.325 146.772 206.315 182.65C206.766 183.098 207.284 183.477 207.771 183.889V192.009Z" fill="#231F20"/>
</g>
<mask id="mask8_0_7" style="mask-type:luminance" maskUnits="userSpaceOnUse" x="1" y="88" width="136" height="109">
<path fill-rule="evenodd" clip-rule="evenodd" d="M1.73462 184.539L11.717 196.778L136.169 95.7902L119.758 88.7773" fill="white"/>
</mask>
<g mask="url(#mask8_0_7)">
<path fill-rule="evenodd" clip-rule="evenodd" d="M-16.9836 90.0186C-11.0193 95.9284 -5.03982 101.823 0.906403 107.751C32.1909 138.938 63.4679 170.135 94.7434 201.33C95.0864 201.672 95.3947 202.045 95.7196 202.404H87.5762C87.2407 201.994 86.937 201.553 86.5637 201.182C52.461 167.165 18.3537 133.155 -15.7581 99.1486C-16.1314 98.7764 -16.5741 98.4735 -16.9836 98.139C-16.9836 95.4327 -16.9836 92.7249 -16.9836 90.0186Z" fill="#231F20"/>
</g>
<mask id="mask9_0_7" style="mask-type:luminance" maskUnits="userSpaceOnUse" x="1" y="88" width="136" height="109">
<path fill-rule="evenodd" clip-rule="evenodd" d="M1.73462 184.539L11.717 196.778L136.169 95.7902L119.758 88.7773L1.73462 184.539Z" fill="white"/>
</mask>
<g mask="url(#mask9_0_7)">
<path fill-rule="evenodd" clip-rule="evenodd" d="M207.771 175.769C207.45 175.483 207.116 175.211 206.812 174.909C173.325 141.52 139.837 108.128 106.354 74.7332C106.05 74.4303 105.778 74.0973 105.491 73.7778H113.634C113.97 74.1877 114.274 74.6292 114.647 75.0014C145.274 105.553 175.907 136.098 206.545 166.639C206.917 167.011 207.361 167.314 207.771 167.649V175.769Z" fill="#231F20"/>
</g>
<mask id="mask10_0_7" style="mask-type:luminance" maskUnits="userSpaceOnUse" x="1" y="88" width="136" height="109">
<path fill-rule="evenodd" clip-rule="evenodd" d="M1.73462 184.539L11.717 196.778L136.169 95.7902L119.758 88.7773" fill="white"/>
</mask>
<g mask="url(#mask10_0_7)">
<path fill-rule="evenodd" clip-rule="evenodd" d="M-16.9836 106.259C-16.6996 106.504 -16.4004 106.733 -16.1344 106.999C15.4765 138.516 47.0844 170.035 78.6908 201.556C78.9553 201.822 79.1865 202.12 79.4328 202.403H71.2894C70.954 201.995 70.6502 201.553 70.2785 201.181C41.6052 172.578 12.9258 143.981 -15.7581 115.389C-16.1314 115.017 -16.5741 114.714 -16.9836 114.379C-16.9836 111.673 -16.9836 108.965 -16.9836 106.259Z" fill="#231F20"/>
</g>
<mask id="mask11_0_7" style="mask-type:luminance" maskUnits="userSpaceOnUse" x="1" y="88" width="136" height="109">
<path fill-rule="evenodd" clip-rule="evenodd" d="M1.73462 184.539L11.717 196.778L136.169 95.7902L119.758 88.7773L1.73462 184.539Z" fill="white"/>
</mask>
<g mask="url(#mask11_0_7)">
<path fill-rule="evenodd" clip-rule="evenodd" d="M207.771 159.528C201.654 153.463 195.523 147.413 189.423 141.331C167.156 119.139 144.899 96.9351 122.641 74.7332C122.337 74.4303 122.065 74.0973 121.778 73.7778C124.492 73.7778 127.207 73.7778 129.921 73.7778C130.257 74.1862 130.56 74.6277 130.934 74.9999C156.131 100.139 181.337 125.271 206.545 150.398C206.918 150.77 207.361 151.073 207.771 151.408V159.528Z" fill="#231F20"/>
</g>
<mask id="mask12_0_7" style="mask-type:luminance" maskUnits="userSpaceOnUse" x="1" y="88" width="136" height="109">
<path fill-rule="evenodd" clip-rule="evenodd" d="M1.73462 184.539L11.717 196.778L136.169 95.7902L119.758 88.7773" fill="white"/>
</mask>
<g mask="url(#mask12_0_7)">
<path fill-rule="evenodd" clip-rule="evenodd" d="M-16.9836 122.5C-10.8667 128.565 -4.73458 134.616 1.36729 140.698C21.6026 160.862 41.8288 181.039 62.0565 201.214C62.4358 201.594 62.7834 202.007 63.146 202.403H55.0027C54.6672 201.995 54.3635 201.553 53.9917 201.181C30.7841 178.031 7.57342 154.886 -15.6433 131.747C-16.0558 131.337 -16.5348 130.994 -16.9836 130.62C-16.9836 127.914 -16.9836 125.206 -16.9836 122.5Z" fill="#231F20"/>
</g>
<mask id="mask13_0_7" style="mask-type:luminance" maskUnits="userSpaceOnUse" x="1" y="88" width="136" height="109">
<path fill-rule="evenodd" clip-rule="evenodd" d="M1.73462 184.539L11.717 196.778L136.169 95.7902L119.758 88.7773" fill="white"/>
</mask>
<g mask="url(#mask13_0_7)">
<path fill-rule="evenodd" clip-rule="evenodd" d="M-16.9836 138.74C-16.7388 138.95 -16.4804 139.143 -16.2523 139.369C4.57689 160.134 25.4045 180.903 46.2292 201.675C46.4558 201.901 46.6508 202.161 46.8593 202.403H38.7159C38.4197 202.034 38.1538 201.632 37.8198 201.297C19.9268 183.445 2.02916 165.597 -15.8745 147.756C-16.21 147.421 -16.6119 147.157 -16.9836 146.861C-16.9836 144.154 -16.9836 141.447 -16.9836 138.74Z" fill="#231F20"/>
</g>
<mask id="mask14_0_7" style="mask-type:luminance" maskUnits="userSpaceOnUse" x="1" y="88" width="136" height="109">
<path fill-rule="evenodd" clip-rule="evenodd" d="M1.73462 184.539L11.717 196.778L136.169 95.7902L119.758 88.7773" fill="white"/>
</mask>
<g mask="url(#mask14_0_7)">
<path fill-rule="evenodd" clip-rule="evenodd" d="M-16.9836 154.981C-11.2233 160.69 -5.45387 166.389 0.294401 172.111C10.1076 181.883 19.9086 191.667 29.7112 201.449C30.0149 201.752 30.2869 202.085 30.5725 202.403H22.4292C22.1692 202.072 21.9411 201.708 21.6449 201.413C9.10569 188.899 -3.43955 176.389 -15.9908 163.883C-16.287 163.588 -16.6512 163.361 -16.9836 163.101C-16.9836 160.395 -16.9836 157.687 -16.9836 154.981Z" fill="#231F20"/>
</g>
<mask id="mask15_0_7" style="mask-type:luminance" maskUnits="userSpaceOnUse" x="1" y="88" width="136" height="109">
<path fill-rule="evenodd" clip-rule="evenodd" d="M1.73462 184.539L11.717 196.778L136.169 95.7902L119.758 88.7773" fill="white"/>
</mask>
<g mask="url(#mask15_0_7)">
<path fill-rule="evenodd" clip-rule="evenodd" d="M-16.9836 171.221C-13.02 175.139 -9.03973 179.04 -5.09573 182.978C1.37636 189.441 7.82729 195.927 14.2858 202.402H6.14391C5.92329 202.109 5.73591 201.783 5.47902 201.525C-1.70933 194.347 -8.90373 187.173 -16.1042 180.005C-16.3611 179.748 -16.689 179.562 -16.9836 179.342C-16.9836 176.635 -16.9836 173.927 -16.9836 171.221Z" fill="#231F20"/>
</g>
<path fill-rule="evenodd" clip-rule="evenodd" d="M137.392 95.0963L181.392 58.6602L161.554 105.66L137.392 95.0963Z" fill="#231F20"/>
<path fill-rule="evenodd" clip-rule="evenodd" d="M185.476 34.3712L119.561 87.853L91.4764 75.8185L121.198 6.85303L185.476 34.3712Z" fill="#231F20"/>
<path fill-rule="evenodd" clip-rule="evenodd" d="M2.95302 184.185L11.9872 195.264L134.934 95.4745L120.087 89.1298L2.95302 184.185ZM11.768 197.384L0.827515 183.966L119.842 87.3838L137.828 95.0704L136.858 95.8575L11.768 197.384Z" fill="#231F20"/>
<path fill-rule="evenodd" clip-rule="evenodd" d="M226.049 0.65332L183.871 35.2408L189.177 37.5424L178.892 61.6533L236.892 14.0899L226.049 0.65332ZM191.144 36.751L186.736 34.8406L225.833 2.77822L234.786 13.8724L182.679 56.6031L191.144 36.751Z" fill="#231F20"/>
<path fill-rule="evenodd" clip-rule="evenodd" d="M35.6601 48.7893C25.0439 48.7893 16.4083 57.4357 16.4083 68.0633C16.4083 78.6909 25.0439 87.3358 35.6601 87.3358C46.2763 87.3358 54.9119 78.6909 54.9119 68.0633C54.9119 57.4357 46.2763 48.7893 35.6601 48.7893ZM35.6601 88.8424C24.2147 88.8424 14.9033 79.5196 14.9033 68.0633C14.9033 56.6041 24.2147 47.2827 35.6601 47.2827C47.1056 47.2827 56.4169 56.6041 56.4169 68.0633C56.4169 79.5196 47.1056 88.8424 35.6601 88.8424Z" fill="#231F20"/>
<path fill-rule="evenodd" clip-rule="evenodd" d="M120.593 153.219L112.288 246.63L191.989 144.405L120.593 153.219ZM110.336 251.582L119.201 151.871L119.806 151.798L195.412 142.466L110.336 251.582Z" fill="#231F20"/>
</g>
</svg>
