<svg width="219" height="169" viewBox="0 0 219 169" fill="none" xmlns="http://www.w3.org/2000/svg">
<g opacity="0.502697">
<path fill-rule="evenodd" clip-rule="evenodd" d="M94.4917 42.6513L48.7902 129.969L42.562 126.701L88.2635 39.3828L94.4917 42.6513Z" stroke="#010202"/>
<path d="M0.753418 142.671L218.378 18.4282" stroke="#010202"/>
<path fill-rule="evenodd" clip-rule="evenodd" d="M112.478 124.56C112.478 148.867 92.8008 168.57 68.5266 168.57C44.2524 168.57 24.575 148.867 24.575 124.56C24.575 100.253 44.2524 80.5496 68.5266 80.5496C92.8008 80.5496 112.478 100.253 112.478 124.56Z" fill="#010202"/>
<path d="M94.5752 89.1121L24.78 128.956" stroke="#FEFEFE"/>
<path fill-rule="evenodd" clip-rule="evenodd" d="M150.992 71.8843L200.153 157.297L194.06 160.813L144.899 75.4004L150.992 71.8843Z" stroke="#010202"/>
<path fill-rule="evenodd" clip-rule="evenodd" d="M141.18 98.1547C141.18 103.148 137.137 107.197 132.149 107.197C127.162 107.197 123.119 103.148 123.119 98.1547C123.119 93.161 127.162 89.1121 132.149 89.1121C137.137 89.1121 141.18 93.161 141.18 98.1547Z" stroke="#010202"/>
</g>
</svg>
