<svg width="238" height="184" viewBox="0 0 238 184" fill="none" xmlns="http://www.w3.org/2000/svg">
<g opacity="0.402088">
<path d="M86.8105 0.822876L0.810547 95.8229" stroke="#231F20"/>
<path d="M92.486 6.54908L6.48596 101.549" stroke="#201C1D"/>
<path d="M97.6438 10.3434L11.6438 105.343" stroke="#1E1A1C"/>
<path d="M102.353 16.3285L16.3533 111.328" stroke="#1C191A"/>
<path d="M107.77 21.0887L21.7699 116.089" stroke="#1B1819"/>
<path d="M113.187 25.849L27.1865 120.849" stroke="#191718"/>
<path d="M119.569 30.3505L33.5691 125.35" stroke="#181617"/>
<path d="M125.952 34.8519L39.9517 129.852" stroke="#171516"/>
<path d="M130.402 39.871L44.4023 134.871" stroke="#161415"/>
<path d="M135.819 44.6313L49.819 139.631" stroke="#151314"/>
<path d="M141.494 50.3575L55.4944 145.358" stroke="#151213"/>
<path d="M146.911 55.1178L60.911 150.118" stroke="#131111"/>
<path d="M152.328 59.8781L66.3276 154.878" stroke="#110F0F"/>
<path d="M157.744 64.6383L71.7443 159.638" stroke="#0F0D0D"/>
<path d="M163.161 69.3986L77.1609 164.399" stroke="#0C0A0A"/>
<path d="M169.543 73.9001L83.5433 168.9" stroke="#080607"/>
<path d="M175.219 79.6263L89.2188 174.626" stroke="#030303"/>
<path d="M180.635 84.3866L94.6354 179.387" stroke="#010202"/>
<path fill-rule="evenodd" clip-rule="evenodd" d="M12.5703 40.3811H74.5703L63.2711 85.3811L12.5703 40.3811Z" fill="#DFCCC2"/>
<path fill-rule="evenodd" clip-rule="evenodd" d="M12.5703 40.3811H74.5703L63.2711 85.3811L12.5703 40.3811Z" stroke="#010202"/>
<path fill-rule="evenodd" clip-rule="evenodd" d="M166.908 83.4501C186.515 83.4501 202.408 67.5562 202.408 47.9501C202.408 28.3439 186.515 12.4501 166.908 12.4501C147.302 12.4501 131.408 28.3439 131.408 47.9501C131.408 67.5562 147.302 83.4501 166.908 83.4501ZM166.908 13.7829C185.779 13.7829 201.076 29.08 201.076 47.9501C201.076 66.8201 185.779 82.1172 166.908 82.1172C148.038 82.1172 132.741 66.8201 132.741 47.9501C132.741 29.08 148.038 13.7829 166.908 13.7829Z" fill="#010202"/>
<path d="M138.193 182.95L136.9 183.269C136.86 183.109 136.793 182.811 136.707 182.389C136.565 181.689 136.423 180.893 136.29 180.014C135.521 174.907 135.402 169.537 136.351 164.495C137.811 156.739 141.627 150.894 148.345 147.818C156.511 144.079 168.532 144.675 184.934 150.339C200.898 155.852 212.851 156.156 221.271 152.106C228.096 148.824 232.394 142.789 234.614 134.76C236.311 128.62 236.622 122.102 236.136 116.275C236.094 115.767 236.049 115.316 236.003 114.927C235.976 114.697 235.956 114.539 235.944 114.461L237.262 114.269C237.275 114.36 237.297 114.53 237.326 114.773C237.373 115.176 237.42 115.641 237.463 116.164C237.961 122.134 237.643 128.8 235.897 135.115C233.583 143.486 229.058 149.839 221.848 153.307C213.069 157.529 200.767 157.216 184.499 151.598C168.391 146.036 156.704 145.456 148.899 149.029C142.619 151.905 139.046 157.377 137.66 164.741C136.742 169.616 136.858 174.844 137.607 179.815C137.736 180.672 137.874 181.446 138.012 182.123C138.094 182.527 138.157 182.807 138.193 182.95Z" fill="#010202"/>
<path fill-rule="evenodd" clip-rule="evenodd" d="M9.31812 119.882L9.73339 113.594L161.318 124.305L160.903 130.594L9.31812 119.882Z" fill="#010202"/>
</g>
</svg>
