<svg width="223" height="183" viewBox="0 0 223 183" fill="none" xmlns="http://www.w3.org/2000/svg">
<g opacity="0.37207">
<path d="M139 102L153 148" stroke="#020303"/>
<path d="M143 102L157 148" stroke="#020303"/>
<path d="M148 100L162 146" stroke="#020303"/>
<path d="M152 98L166 144" stroke="#020303"/>
<path d="M156 97L170 143" stroke="#020303"/>
<path d="M161 96L175 142" stroke="#020302"/>
<path d="M165 94L179 140" stroke="#020302"/>
<path d="M170 93L184 139" stroke="#020302"/>
<path d="M173 91L187 137" stroke="#020302"/>
<path d="M177 90L191 136" stroke="#020202"/>
<path d="M182 88L196 134" stroke="#010202"/>
<path d="M187 88L201 134" stroke="#010202"/>
<path d="M192 86L206 132" stroke="#010202"/>
<path d="M195 84L209 130" stroke="#010202"/>
<path fill-rule="evenodd" clip-rule="evenodd" d="M161.076 100.149C163.004 94.6809 164 88.9086 164 82.9943C164 64.207 153.851 47.2215 137.858 38.3173C130.453 34.1913 122.137 32 113.494 32C86.4015 32 64.1703 53.5928 63.0451 80.8432C63.0136 81.5004 62.9998 82.2005 62.9998 82.9943C62.9998 111.167 85.6049 134 113.494 134C123.466 134 133.009 131.074 141.167 125.668C150.355 119.582 157.374 110.614 161.076 100.149ZM137.316 39.3083C152.956 48.0154 162.879 64.6235 162.879 82.9943C162.879 88.7787 161.905 94.4226 160.02 99.7687C156.401 110.001 149.537 118.77 140.552 124.722C132.576 130.008 123.246 132.868 113.494 132.868C86.2238 132.868 64.1204 110.543 64.1204 82.9943C64.1204 82.2174 64.1338 81.535 64.1645 80.8941C65.2649 54.2454 87.0029 33.1317 113.494 33.1317C121.946 33.1317 130.076 35.274 137.316 39.3083Z" fill="#010202"/>
<path d="M18.5518 107L17.9998 106.012L148.448 32L149 32.9881L18.5518 107Z" fill="#010202"/>
<path fill-rule="evenodd" clip-rule="evenodd" d="M179 74.62L174.803 76L150 1.38001L154.197 0L179 74.62Z" fill="#010202"/>
<path fill-rule="evenodd" clip-rule="evenodd" d="M9.5003 59C14.7468 59 18.9998 54.7468 18.9998 49.5C18.9998 44.2532 14.7468 40 9.5003 40C4.25361 40 -0.000244141 44.2534 -0.000244141 49.5C-0.000244141 54.7466 4.25361 59 9.5003 59ZM9.5003 41.082C14.1493 41.082 17.9178 44.8508 17.9178 49.5C17.9178 54.1492 14.1493 57.918 9.5003 57.918C4.85112 57.918 1.0817 54.149 1.0817 49.5C1.0817 44.851 4.85112 41.082 9.5003 41.082Z" fill="#010202"/>
<path fill-rule="evenodd" clip-rule="evenodd" d="M37.9998 79C37.9998 82.3136 35.3134 85 31.9998 85C28.6862 85 25.9998 82.3136 25.9998 79C25.9998 75.6864 28.6862 73 31.9998 73C35.3134 73 37.9998 75.6864 37.9998 79Z" fill="#010202"/>
<path fill-rule="evenodd" clip-rule="evenodd" d="M59.9998 50.5C59.9998 57.4041 54.4028 63 47.4998 63C40.5956 63 34.9998 57.4041 34.9998 50.5C34.9998 43.5959 40.5956 38 47.4998 38C54.4028 38 59.9998 43.5959 59.9998 50.5Z" fill="#010202"/>
<path fill-rule="evenodd" clip-rule="evenodd" d="M119 183L223 125.197L153.075 96L119 183ZM220.429 125.341L121.177 180.506L153.696 97.4769L220.429 125.341Z" fill="#010202"/>
<path fill-rule="evenodd" clip-rule="evenodd" d="M161 100.559C157.442 111.066 150.705 119.976 142 126L152.846 97L161 100.559Z" fill="#010202"/>
</g>
</svg>
